<svg width="119" height="154" fill="none" xmlns="http://www.w3.org/2000/svg"><path d="M72.39 86.941a11.889 11.889 0 0 0-3.888 1.656c-3.14 2-4.968 4.858-4.081 6.38.887 1.522 4.152 1.132 7.293-.869a12.384 12.384 0 0 0 3.19-2.852c.409-.542.482-1.218.187-1.723l-1.152-1.977c-.294-.507-.902-.747-1.55-.615Zm-7.888-26.993a8.659 8.659 0 0 0-2.819 1.2c-2.276 1.452-3.602 3.523-2.96 4.626.643 1.103 3.011.82 5.288-.63a8.988 8.988 0 0 0 2.313-2.07c.296-.392.35-.882.135-1.248l-.834-1.432c-.212-.367-.653-.542-1.123-.446Z" fill="#D5D6DB"/><path d="M51.688 61.079a1.02 1.02 0 0 0-.656.163l-5.348 3.408c-.447.285-.626.832-.4 1.223.052.09.123.166.21.225l13.181 9.085L76.51 63.818l-24.821-2.74Z" fill="#029BC5"/><path d="M108.065 59.794 59.533 90.346 30.82 101.772l-14.643 2.91-1.611-2.737 80.895-49.946c2.411-1.495 5.097-2.413 7.785-2.66a14.212 14.212 0 0 1 3.462.116 9.66 9.66 0 0 1 2.8.864c.964.478 2.799.533 3.393 1.486.002-.002 1.404 4.373-4.836 7.989Z" fill="#E1E6E9"/><path d="m60.176 86.304-20.995 33.47c-.262.47-.107.996.347 1.175.279.11.62.067.906-.115l5.344-3.39a10.486 10.486 0 0 0 2.674-2.435L89.17 67.14 60.176 86.304ZM7.197 85.186c-.35-.12-.767-.058-1.12.166L1.66 88.167c-.602.383-.841 1.12-.536 1.645.059.1.134.188.225.26l12.377 9.913 13.013-8.128-19.542-6.67Zm10.677 16.585-6.661 9.329c-.098.134-.075.303.051.376.09.053.215.043.316-.024l4.128-2.616a.382.382 0 0 0 .085-.075l9.734-11.835-7.653 4.845Zm88.037-51.914a14.489 14.489 0 0 0-3.565-.118c-1.181 1.65-1.935 3.506-2.189 5.379-.018.376.285.647.678.605a.834.834 0 0 0 .353-.125l7.608-4.844a9.889 9.889 0 0 0-2.885-.897Z" fill="#029BC5"/><path d="m89.332 58.765 4.967-3.137 4.627 7.87-4.967 3.136-4.627-7.869Z" fill="#D5D6DB"/><path d="M86.207 61.877c-.599.38-.838 1.108-.534 1.628l.492.842c.324.507 1.063.596 1.651.199.56-.378.786-1.065.516-1.572l-.492-.841c-.304-.52-1.035-.634-1.633-.256Zm-4.465 2.773c-.598.38-.838 1.108-.534 1.628l.493.842c.324.506 1.063.595 1.651.198.56-.377.785-1.064.516-1.571l-.493-.842c-.304-.52-1.034-.633-1.633-.255Zm-4.466 2.773c-.597.38-.836 1.108-.532 1.627l.492.842c.324.507 1.063.596 1.651.199.56-.378.786-1.064.516-1.572l-.492-.842c-.304-.52-1.036-.633-1.635-.254Zm-4.464 2.773c-.598.38-.836 1.107-.533 1.627l.493.842c.324.506 1.063.595 1.651.198.56-.377.785-1.064.516-1.571l-.493-.842c-.304-.52-1.035-.633-1.634-.254Zm-4.464 2.772c-.598.38-.837 1.108-.533 1.628l.493.842c.303.52 1.035.633 1.633.254.598-.379.837-1.107.534-1.626l-.493-.843c-.303-.52-1.034-.634-1.633-.255Zm-4.464 2.772c-.599.38-.837 1.109-.533 1.628l.492.843c.304.519 1.035.633 1.634.254.598-.38.837-1.108.533-1.627l-.492-.842c-.303-.52-1.034-.634-1.633-.256h-.001Zm-4.464 2.773c-.6.38-.838 1.108-.534 1.628l.493.842c.304.519 1.036.632 1.634.252.596-.379.835-1.105.532-1.624l-.492-.842c-.304-.52-1.035-.634-1.634-.256Zm-4.465 2.773c-.599.38-.837 1.108-.533 1.627l.492.843c.305.519 1.036.631 1.634.252.597-.38.835-1.106.533-1.624l-.493-.843c-.303-.52-1.035-.634-1.633-.255Zm-4.465 2.772c-.598.38-.837 1.108-.533 1.628l.493.842c.304.519 1.036.631 1.634.252.596-.379.835-1.106.532-1.624l-.492-.842c-.304-.52-1.035-.634-1.634-.256Zm-4.465 2.774c-.599.379-.838 1.107-.534 1.626v.001l.493.842c.304.52 1.036.632 1.634.252.597-.379.835-1.105.533-1.624l-.493-.842c-.303-.52-1.035-.634-1.633-.255Zm-4.464 2.771c-.598.38-.837 1.107-.533 1.627l.493.843c.304.519 1.036.631 1.634.252.596-.379.835-1.106.532-1.624l-.492-.842c-.304-.52-1.035-.634-1.634-.256Z" fill="#3A556A"/></svg>